<mxfile host="app.diagrams.net" modified="2021-12-17T17:52:49.844Z" agent="5.0 (X11)" etag="3cIZDKfbVJvSQvqlcQTc" version="16.0.0" type="github">
  <diagram name="Page-1" id="c9db0220-8083-56f3-ca83-edcdcd058819">
    <mxGraphModel dx="1350" dy="720" grid="1" gridSize="10" guides="1" tooltips="1" connect="1" arrows="1" fold="1" page="1" pageScale="1.5" pageWidth="826" pageHeight="1169" background="#ffffff" math="0" shadow="0">
      <root>
        <mxCell id="0" style=";html=1;" />
        <mxCell id="1" style=";html=1;" parent="0" />
        <mxCell id="3d76a8aef4d5c911-1" value="" style="html=1;shadow=0;dashed=0;shape=mxgraph.bootstrap.rect;fillColor=#222222;strokeColor=none;whiteSpace=wrap;rounded=0;fontSize=12;fontColor=#000000;align=center;" parent="1" vertex="1">
          <mxGeometry x="40" y="70" width="1150" height="40" as="geometry" />
        </mxCell>
        <mxCell id="3d76a8aef4d5c911-11" value="" style="html=1;shadow=0;dashed=0;shape=mxgraph.bootstrap.rrect;rSize=5;strokeColor=#dddddd;rounded=0;fontSize=12;align=center;" parent="1" vertex="1">
          <mxGeometry x="40" y="110" width="1150" height="670" as="geometry" />
        </mxCell>
        <mxCell id="PIFYBtvp03k6-455TFPj-1" value="&lt;div style=&quot;font-size: 21px&quot;&gt;&lt;font style=&quot;font-size: 21px&quot;&gt;&lt;b&gt;&lt;font style=&quot;font-size: 21px&quot; color=&quot;#FFFFFF&quot;&gt;User&lt;/font&gt;&lt;/b&gt;&lt;/font&gt;&lt;/div&gt;&lt;div style=&quot;font-size: 21px&quot;&gt;&lt;font style=&quot;font-size: 21px&quot;&gt;&lt;b&gt;&lt;font style=&quot;font-size: 21px&quot; color=&quot;#FFFFFF&quot;&gt;&lt;br&gt;&lt;/font&gt;&lt;/b&gt;&lt;/font&gt;&lt;/div&gt;" style="text;html=1;strokeColor=none;fillColor=none;align=center;verticalAlign=middle;whiteSpace=wrap;rounded=0;fontColor=#000000;" vertex="1" parent="1">
          <mxGeometry x="70" y="86" width="60" height="30" as="geometry" />
        </mxCell>
        <mxCell id="PIFYBtvp03k6-455TFPj-2" value="&lt;b&gt;TGJ&lt;/b&gt;" style="text;html=1;strokeColor=none;fillColor=none;align=center;verticalAlign=middle;whiteSpace=wrap;rounded=0;labelBackgroundColor=none;fontSize=21;fontColor=#FFFFFF;" vertex="1" parent="1">
          <mxGeometry x="130" y="75" width="60" height="30" as="geometry" />
        </mxCell>
        <mxCell id="PIFYBtvp03k6-455TFPj-4" value="&lt;b&gt;Credits&lt;/b&gt;" style="text;html=1;strokeColor=none;fillColor=none;align=center;verticalAlign=middle;whiteSpace=wrap;rounded=0;labelBackgroundColor=none;fontSize=21;fontColor=#FFFFFF;" vertex="1" parent="1">
          <mxGeometry x="310" y="75" width="60" height="30" as="geometry" />
        </mxCell>
        <mxCell id="PIFYBtvp03k6-455TFPj-5" value="&lt;div&gt;98&lt;/div&gt;" style="text;html=1;strokeColor=none;fillColor=none;align=center;verticalAlign=middle;whiteSpace=wrap;rounded=0;labelBackgroundColor=none;fontSize=21;fontColor=#FFFFFF;" vertex="1" parent="1">
          <mxGeometry x="380" y="75" width="60" height="30" as="geometry" />
        </mxCell>
        <mxCell id="PIFYBtvp03k6-455TFPj-6" value="" style="rounded=1;whiteSpace=wrap;html=1;labelBackgroundColor=none;fontSize=21;fontColor=#333333;fillColor=#f5f5f5;strokeColor=#666666;strokeWidth=3;" vertex="1" parent="1">
          <mxGeometry x="80" y="140" width="300" height="240" as="geometry" />
        </mxCell>
        <mxCell id="PIFYBtvp03k6-455TFPj-7" value="" style="rounded=1;whiteSpace=wrap;html=1;labelBackgroundColor=none;fontSize=21;fontColor=#333333;fillColor=#f5f5f5;strokeColor=#666666;strokeWidth=3;" vertex="1" parent="1">
          <mxGeometry x="469.5" y="140" width="300" height="240" as="geometry" />
        </mxCell>
        <mxCell id="PIFYBtvp03k6-455TFPj-8" value="" style="rounded=1;whiteSpace=wrap;html=1;labelBackgroundColor=none;fontSize=21;fontColor=#333333;fillColor=#f5f5f5;strokeColor=#666666;strokeWidth=3;" vertex="1" parent="1">
          <mxGeometry x="860" y="140" width="300" height="240" as="geometry" />
        </mxCell>
        <mxCell id="PIFYBtvp03k6-455TFPj-9" value="" style="rounded=1;whiteSpace=wrap;html=1;labelBackgroundColor=none;fontSize=21;fontColor=#333333;fillColor=#f5f5f5;strokeColor=#666666;strokeWidth=3;" vertex="1" parent="1">
          <mxGeometry x="80" y="450" width="300" height="240" as="geometry" />
        </mxCell>
        <mxCell id="PIFYBtvp03k6-455TFPj-10" value="" style="rounded=1;whiteSpace=wrap;html=1;labelBackgroundColor=none;fontSize=21;fontColor=#333333;fillColor=#f5f5f5;strokeColor=#666666;strokeWidth=3;" vertex="1" parent="1">
          <mxGeometry x="469.5" y="450" width="300" height="240" as="geometry" />
        </mxCell>
        <mxCell id="PIFYBtvp03k6-455TFPj-11" value="" style="rounded=1;whiteSpace=wrap;html=1;labelBackgroundColor=none;fontSize=21;fontColor=#333333;fillColor=#f5f5f5;strokeColor=#666666;strokeWidth=3;" vertex="1" parent="1">
          <mxGeometry x="860" y="450" width="300" height="240" as="geometry" />
        </mxCell>
        <mxCell id="PIFYBtvp03k6-455TFPj-12" value="" style="shape=image;imageAspect=0;aspect=fixed;verticalLabelPosition=bottom;verticalAlign=top;labelBackgroundColor=none;fontSize=21;fontColor=#FFFFFF;strokeWidth=3;fillColor=#000000;image=https://www.awebtoknow.com/wp-content/uploads/2016/12/americano-cocktail-150x150.png;" vertex="1" parent="1">
          <mxGeometry x="150" y="160" width="150" height="150" as="geometry" />
        </mxCell>
        <mxCell id="PIFYBtvp03k6-455TFPj-13" value="" style="shape=image;imageAspect=0;aspect=fixed;verticalLabelPosition=bottom;verticalAlign=top;labelBackgroundColor=none;fontSize=21;fontColor=#FFFFFF;strokeWidth=3;fillColor=#000000;image=https://d3cqmwe6z7cbal.cloudfront.net/wp-content/uploads/2016/09/20213102/cherrycherub-150x144.png;" vertex="1" parent="1">
          <mxGeometry x="540" y="170" width="150" height="144" as="geometry" />
        </mxCell>
        <mxCell id="PIFYBtvp03k6-455TFPj-15" value="" style="shape=image;imageAspect=0;aspect=fixed;verticalLabelPosition=bottom;verticalAlign=top;labelBackgroundColor=none;fontSize=21;fontColor=#FFFFFF;strokeWidth=3;fillColor=#000000;image=http://www.mexican.nl/images/thumb_tequila_sunrise.png;" vertex="1" parent="1">
          <mxGeometry x="980" y="160" width="88" height="160" as="geometry" />
        </mxCell>
        <mxCell id="PIFYBtvp03k6-455TFPj-16" value="" style="shape=image;imageAspect=0;aspect=fixed;verticalLabelPosition=bottom;verticalAlign=top;labelBackgroundColor=none;fontSize=21;fontColor=#FFFFFF;strokeWidth=3;fillColor=#000000;image=https://external-content.duckduckgo.com/iu/?u=https%3A%2F%2Ftse3.mm.bing.net%2Fth%3Fid%3DOIP.ovF24U87jYerd8ifUkhdkQAAAA%26pid%3DApi&amp;f=1;" vertex="1" parent="1">
          <mxGeometry x="153" y="460" width="159" height="159" as="geometry" />
        </mxCell>
        <mxCell id="PIFYBtvp03k6-455TFPj-17" value="" style="shape=image;imageAspect=0;aspect=fixed;verticalLabelPosition=bottom;verticalAlign=top;labelBackgroundColor=none;fontSize=21;fontColor=#FFFFFF;strokeWidth=3;fillColor=#000000;image=https://external-content.duckduckgo.com/iu/?u=https%3A%2F%2Ftse4.mm.bing.net%2Fth%3Fid%3DOIP.Z3bB8rMC40B7_LbwIV7IgAAAAA%26pid%3DApi&amp;f=1;" vertex="1" parent="1">
          <mxGeometry x="578" y="459" width="112" height="160" as="geometry" />
        </mxCell>
        <mxCell id="PIFYBtvp03k6-455TFPj-18" value="" style="shape=image;imageAspect=0;aspect=fixed;verticalLabelPosition=bottom;verticalAlign=top;labelBackgroundColor=none;fontSize=21;fontColor=#FFFFFF;strokeWidth=3;fillColor=#000000;image=https://external-content.duckduckgo.com/iu/?u=https%3A%2F%2Ftse3.mm.bing.net%2Fth%3Fid%3DOIP.SetOziitaE3iFWNtfeik8gAAAA%26pid%3DApi&amp;f=1;" vertex="1" parent="1">
          <mxGeometry x="930" y="470" width="168" height="180" as="geometry" />
        </mxCell>
        <mxCell id="PIFYBtvp03k6-455TFPj-20" value="Old fashioned" style="text;html=1;strokeColor=none;fillColor=none;align=center;verticalAlign=middle;whiteSpace=wrap;rounded=0;labelBackgroundColor=none;fontSize=21;fontColor=#000000;" vertex="1" parent="1">
          <mxGeometry x="142.5" y="330" width="180" height="30" as="geometry" />
        </mxCell>
        <mxCell id="PIFYBtvp03k6-455TFPj-21" value="Dark n&#39; stormy" style="text;html=1;strokeColor=none;fillColor=none;align=center;verticalAlign=middle;whiteSpace=wrap;rounded=0;labelBackgroundColor=none;fontSize=21;fontColor=#000000;" vertex="1" parent="1">
          <mxGeometry x="550" y="330" width="150" height="30" as="geometry" />
        </mxCell>
        <mxCell id="PIFYBtvp03k6-455TFPj-22" value="Tequila sunrise" style="text;html=1;strokeColor=none;fillColor=none;align=center;verticalAlign=middle;whiteSpace=wrap;rounded=0;labelBackgroundColor=none;fontSize=21;fontColor=#000000;" vertex="1" parent="1">
          <mxGeometry x="947" y="330" width="154" height="30" as="geometry" />
        </mxCell>
        <mxCell id="PIFYBtvp03k6-455TFPj-23" value="&lt;div&gt;Mojito&lt;/div&gt;" style="text;html=1;strokeColor=none;fillColor=none;align=center;verticalAlign=middle;whiteSpace=wrap;rounded=0;labelBackgroundColor=none;fontSize=21;fontColor=#000000;" vertex="1" parent="1">
          <mxGeometry x="200" y="640" width="60" height="30" as="geometry" />
        </mxCell>
        <mxCell id="PIFYBtvp03k6-455TFPj-24" value="Pina colada" style="text;html=1;strokeColor=none;fillColor=none;align=center;verticalAlign=middle;whiteSpace=wrap;rounded=0;labelBackgroundColor=none;fontSize=21;fontColor=#000000;" vertex="1" parent="1">
          <mxGeometry x="550" y="650" width="140" height="30" as="geometry" />
        </mxCell>
        <mxCell id="PIFYBtvp03k6-455TFPj-25" value="Screwdriver" style="text;html=1;strokeColor=none;fillColor=none;align=center;verticalAlign=middle;whiteSpace=wrap;rounded=0;labelBackgroundColor=none;fontSize=21;fontColor=#000000;" vertex="1" parent="1">
          <mxGeometry x="967" y="650" width="114" height="30" as="geometry" />
        </mxCell>
      </root>
    </mxGraphModel>
  </diagram>
</mxfile>
